<svg width="16" height="16" viewBox="0 0 16 16" fill="none" xmlns="http://www.w3.org/2000/svg">
<path d="M7.53469 14.4099C7.68229 14.496 7.75609 14.5391 7.86022 14.5614C7.94109 14.5788 8.05895 14.5788 8.13982 14.5614C8.24395 14.5391 8.31775 14.496 8.46535 14.4099C9.76402 13.6523 13.3334 11.2723 13.3334 8.00005V5.46669C13.3334 4.75076 13.3334 4.3928 13.223 4.13869C13.1108 3.88042 12.9991 3.74303 12.7691 3.58062C12.5428 3.42084 12.0991 3.32857 11.2118 3.14404C10.2339 2.94065 9.48289 2.57338 8.79629 2.04224C8.46702 1.78753 8.30242 1.66018 8.17355 1.62545C8.03762 1.5888 7.96242 1.5888 7.82649 1.62545C7.69762 1.66018 7.53302 1.78754 7.20375 2.04224C6.51717 2.57338 5.76615 2.94065 4.78822 3.14404C3.90093 3.32857 3.45729 3.42084 3.23099 3.58062C3.00097 3.74303 2.88921 3.88042 2.77705 4.13869C2.66669 4.3928 2.66669 4.75076 2.66669 5.46669V8.00005C2.66669 11.2723 6.23599 13.6523 7.53469 14.4099Z" fill="#101828" stroke="#101828" stroke-width="2" stroke-linecap="round" stroke-linejoin="round"/>
<path d="M11 6L7.5625 10L6 8.18182" stroke="white" stroke-width="2" stroke-linecap="round" stroke-linejoin="round"/>
</svg>
